# xmcd CD database file
#
# Track frame offsets:
#	150
#	31533
#	47538
#	61338
#	68350
#	86438
#	120328
#	143525
#	161760
#	189590
#	198163
#	232733
#	238130
#
# Disc length: 3382 seconds
#
# Revision: 6
# Processed by: cddbd v1.5.2PL0 Copyright (c) Steve Scherf et al.
# Submitted via: CDex 1.51
#
DISCID=940d340d
DTITLE=Sarah Vaughan - Live In Japan - Disc 2
DYEAR=1973
DGENRE=Jazz
TTITLE0=The Nearness of You
TTITLE1=I'll Remember April
TTITLE2=Watch What Happens
TTITLE3=I Cried For You
TTITLE4=Summertime
TTITLE5=The Blues
TTITLE6=I Remember You
TTITLE7=There Is No Greater Love
TTITLE8=Rainy Days and Mondays
TTITLE9=On a Clear Day
TTITLE10=Bye Bye Blackbird
TTITLE11=Tonight
TTITLE12=Tenderly
EXTD=YEAR: 1973
EXTT0=
EXTT1=
EXTT2=
EXTT3=
EXTT4=
EXTT5=
EXTT6=
EXTT7=
EXTT8=
EXTT9=
EXTT10=
EXTT11=
EXTT12=
PLAYORDER=
